<?xml version="1.0" encoding="UTF-8"?>
<svg version="1.1" xmlns="http://www.w3.org/2000/svg" width="429" height="429">
<path d="M0 0 C86.46 0 172.92 0 262 0 C262 4.95469491 261.6832546 7.83733646 260.375 12.4375 C260.00409177 13.766616 259.63438004 15.09606626 259.265625 16.42578125 C259.06259766 17.1523291 258.85957031 17.87887695 258.65039062 18.62744141 C257.68708314 22.14148875 256.78538238 25.67083238 255.87817383 29.19970703 C253.04742828 40.19419428 250.06166696 51.13413903 246.87011719 62.02929688 C246.25595725 64.12612576 245.64492595 66.22387226 245.03613281 68.32226562 C241.02104655 82.13294223 236.81661209 95.84954082 232.14089966 109.45062256 C231.44084849 111.49024408 230.74854278 113.53239171 230.05639648 115.57470703 C228.01497791 121.54603949 225.88581658 127.41339891 223.27734375 133.16796875 C218.98386156 142.83961113 216.89777167 149.43659709 220.5625 159.6875 C221.60607904 162.30989577 222.71178004 164.88775496 223.87451172 167.45947266 C225.67319778 171.51958702 227.12687662 175.69700373 228.625 179.875 C229.20548402 181.43937707 229.7874812 183.00319362 230.37109375 184.56640625 C233.95338629 194.24969263 237.0887935 204.05027637 239.85913086 213.99633789 C240.84971921 217.51051417 241.90525267 221.00252615 242.97125244 224.4944458 C246.51411393 236.12637569 249.74020211 247.8353464 252.89697266 259.57714844 C253.76053282 262.78917702 254.62798112 266.0001366 255.49609375 269.2109375 C256.05490738 271.28119066 256.61350908 273.35150104 257.171875 275.421875 C257.42708923 276.36778503 257.68230347 277.31369507 257.94525146 278.28826904 C258.41886679 280.05058718 258.8886383 281.81394449 259.35388184 283.57849121 C259.77130353 285.14289594 260.20396061 286.70335045 260.65490723 288.25842285 C261.85476472 292.55028828 261.91127258 294.44363709 261 299 C174.54 299 88.08 299 -1 299 C1.29596928 285.22418431 1.29596928 285.22418431 3.1875 278.375 C3.40325684 277.57690918 3.61901367 276.77881836 3.84130859 275.95654297 C4.31163467 274.21723012 4.78403109 272.47847603 5.25830078 270.74023438 C6.01908004 267.92950811 6.7595512 265.11404356 7.49609375 262.296875 C26.67624504 189.32276129 26.67624504 189.32276129 41.20996094 156.00512695 C43.77988361 149.91324941 42.10126693 145.98188072 39.84765625 140.00390625 C39.40583008 138.82078857 38.96400391 137.6376709 38.50878906 136.41870117 C38.27325317 135.79144135 38.03771729 135.16418152 37.79504395 134.51791382 C29.09235257 111.28741266 21.26946155 87.85103199 14.79248047 63.89453125 C13.51485906 59.22802495 12.15908348 54.58446655 10.8125 49.9375 C8.33669813 41.33641084 6.11053677 32.69768293 4 24 C3.46010608 21.83289092 2.91857541 19.66618859 2.375 17.5 C2.02308594 16.076875 2.02308594 16.076875 1.6640625 14.625 C1.24113782 12.95320361 0.80029607 11.28576475 0.3359375 9.625 C-0.72769379 5.76756386 -0.99968082 3.99872328 0 0 Z " fill="#FE9C96" transform="translate(85,64)"/>
<path d="M0 0 C86.46 0 172.92 0 262 0 C262 4.95469491 261.6832546 7.83733646 260.375 12.4375 C260.00409177 13.766616 259.63438004 15.09606626 259.265625 16.42578125 C259.06259766 17.1523291 258.85957031 17.87887695 258.65039062 18.62744141 C257.68708314 22.14148875 256.78538238 25.67083238 255.87817383 29.19970703 C253.04742828 40.19419428 250.06166696 51.13413903 246.87011719 62.02929688 C246.25595725 64.12612576 245.64492595 66.22387226 245.03613281 68.32226562 C239.28526635 88.10349859 232.861603 107.5799773 226 127 C225.4129126 128.67400879 225.4129126 128.67400879 224.81396484 130.38183594 C223.75963673 133.38272253 222.69515024 136.37972414 221.625 139.375 C221.17918579 140.63860352 221.17918579 140.63860352 220.72436523 141.92773438 C218.91250137 146.92695819 216.74198544 151.59672295 214.31640625 156.32568359 C211.85948997 161.31697828 209.80949215 166.48475173 207.6875 171.625 C203.51057923 181.63624825 199.058315 191.40514462 194 201 C191.36755879 199.68377939 191.33130836 198.66297732 190.37890625 195.921875 C190.08306641 195.09042969 189.78722656 194.25898438 189.48242188 193.40234375 C189.17884766 192.52707031 188.87527344 191.65179688 188.5625 190.75 C186.35989373 184.22810462 186.35989373 184.22810462 183.21484375 178.140625 C182 176 182 176 182.13671875 173.87890625 C183.10179364 171.77844914 184.17321242 170.5601872 185.8125 168.9375 C193.65917952 159.97526845 193.74636654 149.2833059 193 138 C192.24968154 126.74522312 189.91126937 116.88178561 181.125 109.1875 C177.10727837 106.3784711 172.85466064 104.4699291 168.3125 102.6875 C167.70229004 102.44475342 167.09208008 102.20200684 166.46337891 101.9519043 C153.83626334 97.39524669 140.14846728 97.67360795 126.9140625 97.5859375 C125.31989647 97.56895124 123.72573913 97.55112915 122.1315918 97.5324707 C116.29616046 97.46991115 110.46056616 97.42337561 104.625 97.375 C91.54875 97.25125 78.4725 97.1275 65 97 C65 129.34 65 161.68 65 195 C62.56277677 191.75036903 61.10302546 189.3083467 59.51171875 185.66796875 C59.05547119 184.62890381 58.59922363 183.58983887 58.12915039 182.51928711 C57.41553345 180.87005249 57.41553345 180.87005249 56.6875 179.1875 C56.19693115 178.0641626 55.7063623 176.9408252 55.20092773 175.78344727 C52.0952869 168.63671921 49.10308376 161.46040367 46.31640625 154.18359375 C45.33561792 151.81165758 44.30862679 149.62263466 43.12890625 147.35546875 C40.42862748 142.03524276 38.424466 136.47113203 36.375 130.875 C35.94405029 129.70211426 35.51310059 128.52922852 35.0690918 127.32080078 C27.45708653 106.42677797 20.59721662 85.36459025 14.79248047 63.89453125 C13.51485906 59.22802495 12.15908348 54.58446655 10.8125 49.9375 C8.33669813 41.33641084 6.11053677 32.69768293 4 24 C3.46010608 21.83289092 2.91857541 19.66618859 2.375 17.5 C2.02308594 16.076875 2.02308594 16.076875 1.6640625 14.625 C1.24113782 12.95320361 0.80029607 11.28576475 0.3359375 9.625 C-0.72769379 5.76756386 -0.99968082 3.99872328 0 0 Z " fill="#9BD1FE" transform="translate(85,64)"/>
<path d="M0 0 C19.5215625 -0.0928125 19.5215625 -0.0928125 39.4375 -0.1875 C45.5485022 -0.22846802 45.5485022 -0.22846802 51.78295898 -0.27026367 C56.84777832 -0.28381348 56.84777832 -0.28381348 59.23622131 -0.28633118 C60.86633275 -0.2908681 62.49643564 -0.30126939 64.1264801 -0.31672668 C82.52200602 -0.48209044 103.33016721 0.5732382 118.0625 12.9765625 C128.74189398 24.12963927 129.58409404 38.4247725 129.2734375 53.08984375 C128.65243816 61.97013428 125.70353529 68.1263158 119.29296875 74.24609375 C117.78898552 75.88792934 117.78898552 75.88792934 118.13671875 77.859375 C119.22177617 80.54992461 120.40997381 83.17777743 121.625 85.8125 C124.51130131 92.32657885 126.71941691 99.00643884 128.8125 105.8125 C129.11430176 106.77841064 129.41610352 107.74432129 129.72705078 108.73950195 C130.00919434 109.67753662 130.29133789 110.61557129 130.58203125 111.58203125 C130.83186768 112.40936768 131.0817041 113.2367041 131.33911133 114.08911133 C132.22666164 117.99833276 132.55731201 122.01580809 133 126 C113.2 126 93.4 126 73 126 C72.505 121.545 72.505 121.545 72 117 C71.71695404 115.41113698 71.41046742 113.82591858 71.0625 112.25 C70.00067357 107.18651426 69.21905494 102.09788519 68.46484375 96.98046875 C68.04694965 94.30103012 67.55437044 91.65410978 67 89 C65.68 89 64.36 89 63 89 C63 101.21 63 113.42 63 126 C42.21 126 21.42 126 0 126 C0 84.42 0 42.84 0 0 Z " fill="#012544" transform="translate(150,161)"/>
<path d="M0 0 C30.81271418 21.93514924 47.21032887 61.23491135 61.5 94.875 C61.88760498 95.7611499 62.27520996 96.6472998 62.67456055 97.56030273 C63.18756714 98.80662476 63.18756714 98.80662476 63.7109375 100.078125 C64.0104834 100.79129883 64.3100293 101.50447266 64.61865234 102.23925781 C65.80001554 107.80544933 63.83068358 112.91633595 61.71875 118.01953125 C60.97963379 119.8125769 60.97963379 119.8125769 60.22558594 121.6418457 C59.69267878 122.9073257 59.15913884 124.17253939 58.625 125.4375 C58.35788208 126.07763031 58.09076416 126.71776062 57.81555176 127.37728882 C53.37035462 138.02714314 48.53124549 148.42685509 43.125 158.625 C40.49255879 157.30877939 40.45630836 156.28797732 39.50390625 153.546875 C39.20806641 152.71542969 38.91222656 151.88398438 38.60742188 151.02734375 C38.30384766 150.15207031 38.00027344 149.27679688 37.6875 148.375 C35.48489373 141.85310462 35.48489373 141.85310462 32.33984375 135.765625 C31.125 133.625 31.125 133.625 31.26171875 131.50390625 C32.22679364 129.40344914 33.29821242 128.1851872 34.9375 126.5625 C42.78417952 117.60026845 42.87136654 106.9083059 42.125 95.625 C41.37468154 84.37022312 39.03626937 74.50678561 30.25 66.8125 C26.23227837 64.0034711 21.97966064 62.0949291 17.4375 60.3125 C16.82729004 60.06975342 16.21708008 59.82700684 15.58837891 59.5769043 C3.02962131 55.04491454 -10.57806948 55.30005249 -23.7421875 55.2109375 C-25.51580662 55.19218017 -27.28941725 55.17260355 -29.0630188 55.1522522 C-33.6823826 55.10140638 -38.30177519 55.0615295 -42.92126465 55.02410889 C-47.65461058 54.98376729 -52.38784175 54.93281418 -57.12109375 54.8828125 C-66.37231465 54.78661799 -75.62360109 54.70203663 -84.875 54.625 C-84.25044922 54.02389404 -83.62589844 53.42278809 -82.98242188 52.8034668 C-80.48705075 50.22397229 -79.06674578 47.6021034 -77.375 44.4375 C-66.08801821 24.05845371 -50.21372809 0.86369704 -26.77734375 -5.98828125 C-17.24081853 -7.92691779 -8.06758909 -5.04490399 0 0 Z " fill="#98A7D4" transform="translate(235.875,106.375)"/>
<path d="M0 0 C1.32 0 2.64 0 4 0 C6.68068898 6.70172246 7.64504885 13.10355941 8.35302734 20.23413086 C8.68213222 24.24472441 8.68213222 24.24472441 10 28 C10 30.97 10 33.94 10 37 C24.19 37 38.38 37 53 37 C45.11717352 49.38729875 45.11717352 49.38729875 40.875 53.875 C40.06804687 54.73867188 39.26109375 55.60234375 38.4296875 56.4921875 C27.31189863 67.96746154 17.49065827 75.79122662 1.125 77.375 C-13.23495184 76.86316013 -24.64739534 66.14338269 -34.05078125 56.3125 C-47 42.18452085 -47 42.18452085 -47 37 C-31.49 37 -15.98 37 0 37 C0 24.79 0 12.58 0 0 Z " fill="#98A7D4" transform="translate(213,250)"/>
<path d="M0 0 C0.33 0 0.66 0 1 0 C1 30.03 1 60.06 1 91 C-1.43722323 87.75036903 -2.89697454 85.3083467 -4.48828125 81.66796875 C-4.94493164 80.62874268 -5.40158203 79.5895166 -5.87207031 78.51879883 C-6.34741211 77.41947021 -6.82275391 76.3201416 -7.3125 75.1875 C-8.04291504 73.50466919 -8.04291504 73.50466919 -8.78808594 71.7878418 C-9.75542554 69.55107035 -10.71952592 67.31289489 -11.68017578 65.07324219 C-12.80562309 62.45261127 -13.94591033 59.83914408 -15.08984375 57.2265625 C-15.64502587 55.92263854 -16.1985893 54.61802332 -16.75 53.3125 C-17.21921875 52.21550781 -17.6884375 51.11851562 -18.171875 49.98828125 C-19.70666864 44.44999289 -17.70590044 39.85855982 -15.48828125 34.74609375 C-14.97716797 33.56080078 -14.46605469 32.37550781 -13.93945312 31.15429688 C-13.39716072 29.91535351 -12.85484294 28.67642125 -12.3125 27.4375 C-11.79494141 26.23802734 -11.27738281 25.03855469 -10.74414062 23.80273438 C-7.28121769 15.81170549 -3.68382428 7.89131733 0 0 Z " fill="#99A8D4" transform="translate(149,168)"/>
<path d="M0 0 C1 4 1 4 -1 13 C84.8 13 170.6 13 259 13 C258.67 11.02 258.34 9.04 258 7 C258.66 7.99 259.32 8.98 260 10 C259.67 11.65 259.34 13.3 259 15 C172.54 15 86.08 15 -3 15 C-1 3 -1 3 0 0 Z " fill="#FFD9D7" transform="translate(87,348)"/>
<path d="M0 0 C2.64 0 5.28 0 8 0 C10.55049551 2.55049551 10.2606479 4.23482754 10.2734375 7.71679688 C10.26570312 8.44962891 10.25796875 9.18246094 10.25 9.9375 C10.25773438 10.66646484 10.26546875 11.39542969 10.2734375 12.14648438 C10.25946171 15.95838223 10.16125927 17.7581111 8 21 C5.36 21 2.72 21 0 21 C0 14.07 0 7.14 0 0 Z " fill="#94A3D0" transform="translate(213,214)"/>
</svg>
